<svg width="1600" height="788" xmlns="http://www.w3.org/2000/svg"><g><path d="M-15.185342773329467,-183.58594846911728L-163.27398006804287,275.1694629364647L-59.249559277668595,148.48222831264138Z" fill="#f8f8fe" stroke="#f8f8fe"></path><path d="M-15.185342773329467,-183.58594846911728L-59.249559277668595,148.48222831264138L55.37864215206355,-155.3496792120859Z" fill="#fbf8fb" stroke="#fbf8fb"></path><path d="M-15.185342773329467,-183.58594846911728L55.37864215206355,-155.3496792120859L433.2994225039147,-180.56364309275523Z" fill="#edeef6" stroke="#edeef6"></path><path d="M55.37864215206355,-155.3496792120859L-59.249559277668595,148.48222831264138L172.08746812306345,54.74483964499086Z" fill="#f4f3f9" stroke="#f4f3f9"></path><path d="M55.37864215206355,-155.3496792120859L172.08746812306345,54.74483964499086L218.8868751609698,-61.45006814505905Z" fill="#edeef6" stroke="#edeef6"></path><path d="M55.37864215206355,-155.3496792120859L218.8868751609698,-61.45006814505905L433.2994225039147,-180.56364309275523Z" fill="#e6e9f3" stroke="#e6e9f3"></path><path d="M218.8868751609698,-61.45006814505905L172.08746812306345,54.74483964499086L235.04314596764743,58.90610295115039Z" fill="#e7eaf4" stroke="#e7eaf4"></path><path d="M218.8868751609698,-61.45006814505905L235.04314596764743,58.90610295115039L433.2994225039147,-180.56364309275523Z" fill="#e0e6f1" stroke="#e0e6f1"></path><path d="M433.2994225039147,-180.56364309275523L235.04314596764743,58.90610295115039L483.9172665285878,161.90163482213393Z" fill="#d4e1ee" stroke="#d4e1ee"></path><path d="M433.2994225039147,-180.56364309275523L483.9172665285878,161.90163482213393L646.7251344188116,58.6333459476009Z" fill="#c2daeb" stroke="#c2daeb"></path><path d="M433.2994225039147,-180.56364309275523L646.7251344188116,58.6333459476009L754.1966207930818,-19.41509768133983Z" fill="#b7d6e8" stroke="#b7d6e8"></path><path d="M433.2994225039147,-180.56364309275523L754.1966207930818,-19.41509768133983L881.5172330592759,-36.62292323075235Z" fill="#add2e3" stroke="#add2e3"></path><path d="M433.2994225039147,-180.56364309275523L881.5172330592759,-36.62292323075235L1475.0546313961968,-129.19819947564974Z" fill="#91c9cf" stroke="#91c9cf"></path><path d="M754.1966207930818,-19.41509768133983L646.7251344188116,58.6333459476009L756.1515383888036,221.24422995373607Z" fill="#a1cde1" stroke="#a1cde1"></path><path d="M754.1966207930818,-19.41509768133983L756.1515383888036,221.24422995373607L962.7706713462248,108.69444250129163Z" fill="#94c8d8" stroke="#94c8d8"></path><path d="M754.1966207930818,-19.41509768133983L962.7706713462248,108.69444250129163L881.5172330592759,-36.62292323075235Z" fill="#97cad4" stroke="#97cad4"></path><path d="M881.5172330592759,-36.62292323075235L962.7706713462248,108.69444250129163L1156.6877529094927,-35.22964724339545Z" fill="#8bc5c8" stroke="#8bc5c8"></path><path d="M881.5172330592759,-36.62292323075235L1156.6877529094927,-35.22964724339545L1475.0546313961968,-129.19819947564974Z" fill="#85bcb7" stroke="#85bcb7"></path><path d="M1156.6877529094927,-35.22964724339545L962.7706713462248,108.69444250129163L1028.7862426647916,155.0165547686629Z" fill="#83bfc3" stroke="#83bfc3"></path><path d="M1156.6877529094927,-35.22964724339545L1028.7862426647916,155.0165547686629L1231.6071297950111,59.19363704510033Z" fill="#81bbba" stroke="#81bbba"></path><path d="M1156.6877529094927,-35.22964724339545L1231.6071297950111,59.19363704510033L1331.4780401694588,-15.974824747536331Z" fill="#81b8b0" stroke="#81b8b0"></path><path d="M1156.6877529094927,-35.22964724339545L1331.4780401694588,-15.974824747536331L1475.0546313961968,-129.19819947564974Z" fill="#80b3a8" stroke="#80b3a8"></path><path d="M1331.4780401694588,-15.974824747536331L1231.6071297950111,59.19363704510033L1426.9675788306631,63.77522983821109Z" fill="#7cb1a7" stroke="#7cb1a7"></path><path d="M1331.4780401694588,-15.974824747536331L1426.9675788306631,63.77522983821109L1475.0546313961968,-129.19819947564974Z" fill="#80ae9f" stroke="#80ae9f"></path><path d="M1475.0546313961968,-129.19819947564974L1426.9675788306631,63.77522983821109L1764.3272087792866,-37.88024057401344Z" fill="#80a691" stroke="#80a691"></path><path d="M1764.3272087792866,-37.88024057401344L1426.9675788306631,63.77522983821109L1741.5703821391799,139.48048501973972Z" fill="#7b9f88" stroke="#7b9f88"></path><path d="M1764.3272087792866,-37.88024057401344L1741.5703821391799,139.48048501973972L1759.8599124676548,346.205497989431Z" fill="#729480" stroke="#729480"></path><path d="M-59.249559277668595,148.48222831264138L-163.27398006804287,275.1694629364647L75.33228000393137,382.2541276924312Z" fill="#cce5fa" stroke="#cce5fa"></path><path d="M-59.249559277668595,148.48222831264138L75.33228000393137,382.2541276924312L172.08746812306345,54.74483964499086Z" fill="#dae8f8" stroke="#dae8f8"></path><path d="M172.08746812306345,54.74483964499086L75.33228000393137,382.2541276924312L235.04314596764743,58.90610295115039Z" fill="#dbe5f6" stroke="#dbe5f6"></path><path d="M235.04314596764743,58.90610295115039L75.33228000393137,382.2541276924312L355.16131362179294,378.8015439733863Z" fill="#b2d4f1" stroke="#b2d4f1"></path><path d="M235.04314596764743,58.90610295115039L355.16131362179294,378.8015439733863L483.9172665285878,161.90163482213393Z" fill="#bdd6ee" stroke="#bdd6ee"></path><path d="M483.9172665285878,161.90163482213393L355.16131362179294,378.8015439733863L557.947686095722,285.4986361437477Z" fill="#96c7e9" stroke="#96c7e9"></path><path d="M483.9172665285878,161.90163482213393L557.947686095722,285.4986361437477L646.7251344188116,58.6333459476009Z" fill="#abcfe9" stroke="#abcfe9"></path><path d="M646.7251344188116,58.6333459476009L557.947686095722,285.4986361437477L756.1515383888036,221.24422995373607Z" fill="#99c8e5" stroke="#99c8e5"></path><path d="M962.7706713462248,108.69444250129163L756.1515383888036,221.24422995373607L876.2898477399722,347.83947257557884Z" fill="#74bbd3" stroke="#74bbd3"></path><path d="M962.7706713462248,108.69444250129163L876.2898477399722,347.83947257557884L1028.7862426647916,155.0165547686629Z" fill="#70bbcc" stroke="#70bbcc"></path><path d="M1028.7862426647916,155.0165547686629L876.2898477399722,347.83947257557884L1128.9002029993571,231.05060876812786Z" fill="#61b2c5" stroke="#61b2c5"></path><path d="M1028.7862426647916,155.0165547686629L1128.9002029993571,231.05060876812786L1231.6071297950111,59.19363704510033Z" fill="#79b7bb" stroke="#79b7bb"></path><path d="M1231.6071297950111,59.19363704510033L1128.9002029993571,231.05060876812786L1260.9005106403492,306.04802190093324Z" fill="#67adb3" stroke="#67adb3"></path><path d="M1231.6071297950111,59.19363704510033L1260.9005106403492,306.04802190093324L1426.9675788306631,63.77522983821109Z" fill="#72adaa" stroke="#72adaa"></path><path d="M1426.9675788306631,63.77522983821109L1260.9005106403492,306.04802190093324L1502.3248587781563,295.8362276805565Z" fill="#5ca09f" stroke="#5ca09f"></path><path d="M1426.9675788306631,63.77522983821109L1502.3248587781563,295.8362276805565L1741.5703821391799,139.48048501973972Z" fill="#6e9e91" stroke="#6e9e91"></path><path d="M1741.5703821391799,139.48048501973972L1502.3248587781563,295.8362276805565L1759.8599124676548,346.205497989431Z" fill="#4f8c83" stroke="#4f8c83"></path><path d="M-163.27398006804287,275.1694629364647L-173.0659481161274,758.294606807176L-159.83299083309248,476.91636394010857Z" fill="#91d2d3" stroke="#91d2d3"></path><path d="M-163.27398006804287,275.1694629364647L-159.83299083309248,476.91636394010857L75.33228000393137,382.2541276924312Z" fill="#acdbed" stroke="#acdbed"></path><path d="M75.33228000393137,382.2541276924312L-159.83299083309248,476.91636394010857L63.92841893481091,462.1009143209085Z" fill="#96d1dd" stroke="#96d1dd"></path><path d="M75.33228000393137,382.2541276924312L63.92841893481091,462.1009143209085L355.16131362179294,378.8015439733863Z" fill="#90cadf" stroke="#90cadf"></path><path d="M355.16131362179294,378.8015439733863L63.92841893481091,462.1009143209085L331.4413755014539,571.7967769526877Z" fill="#77bfcf" stroke="#77bfcf"></path><path d="M355.16131362179294,378.8015439733863L331.4413755014539,571.7967769526877L581.185318431817,433.23653298895806Z" fill="#65b7cb" stroke="#65b7cb"></path><path d="M355.16131362179294,378.8015439733863L581.185318431817,433.23653298895806L557.947686095722,285.4986361437477Z" fill="#76bcdd" stroke="#76bcdd"></path><path d="M557.947686095722,285.4986361437477L581.185318431817,433.23653298895806L756.1515383888036,221.24422995373607Z" fill="#73bae3" stroke="#73bae3"></path><path d="M756.1515383888036,221.24422995373607L581.185318431817,433.23653298895806L876.2898477399722,347.83947257557884Z" fill="#60b4d7" stroke="#60b4d7"></path><path d="M876.2898477399722,347.83947257557884L581.185318431817,433.23653298895806L683.7243430037051,569.7407135739923Z" fill="#43aac1" stroke="#43aac1"></path><path d="M876.2898477399722,347.83947257557884L683.7243430037051,569.7407135739923L949.6365162823349,423.1950825196691Z" fill="#35a6b8" stroke="#35a6b8"></path><path d="M876.2898477399722,347.83947257557884L949.6365162823349,423.1950825196691L1128.9002029993571,231.05060876812786Z" fill="#45aac2" stroke="#45aac2"></path><path d="M1128.9002029993571,231.05060876812786L949.6365162823349,423.1950825196691L1019.3149074283428,533.5774006415159Z" fill="#32a1b0" stroke="#32a1b0"></path><path d="M1128.9002029993571,231.05060876812786L1019.3149074283428,533.5774006415159L1260.9005106403492,306.04802190093324Z" fill="#399fae" stroke="#399fae"></path><path d="M1260.9005106403492,306.04802190093324L1019.3149074283428,533.5774006415159L1317.5132518541068,420.8322844398208Z" fill="#24969b" stroke="#24969b"></path><path d="M1260.9005106403492,306.04802190093324L1317.5132518541068,420.8322844398208L1502.3248587781563,295.8362276805565Z" fill="#37949b" stroke="#37949b"></path><path d="M1502.3248587781563,295.8362276805565L1317.5132518541068,420.8322844398208L1578.9092202996835,423.89556349255145Z" fill="#2c8a88" stroke="#2c8a88"></path><path d="M1502.3248587781563,295.8362276805565L1578.9092202996835,423.89556349255145L1759.8599124676548,346.205497989431Z" fill="#33847e" stroke="#33847e"></path><path d="M1759.8599124676548,346.205497989431L1578.9092202996835,423.89556349255145L1675.4905477259308,569.3632013374008Z" fill="#197966" stroke="#197966"></path><path d="M1759.8599124676548,346.205497989431L1675.4905477259308,569.3632013374008L1751.0016609937884,729.4724482949823Z" fill="#126949" stroke="#126949"></path><path d="M-159.83299083309248,476.91636394010857L-173.0659481161274,758.294606807176L57.36220732098445,687.8506775153801Z" fill="#91bcb1" stroke="#91bcb1"></path><path d="M-159.83299083309248,476.91636394010857L57.36220732098445,687.8506775153801L63.92841893481091,462.1009143209085Z" fill="#8ec5c6" stroke="#8ec5c6"></path><path d="M63.92841893481091,462.1009143209085L57.36220732098445,687.8506775153801L331.4413755014539,571.7967769526877Z" fill="#7fb7b9" stroke="#7fb7b9"></path><path d="M331.4413755014539,571.7967769526877L57.36220732098445,687.8506775153801L309.9548847018741,694.3221031362191Z" fill="#78a7a4" stroke="#78a7a4"></path><path d="M331.4413755014539,571.7967769526877L309.9548847018741,694.3221031362191L467.7551581664011,712.0347093138844Z" fill="#6a9f9d" stroke="#6a9f9d"></path><path d="M331.4413755014539,571.7967769526877L467.7551581664011,712.0347093138844L581.185318431817,433.23653298895806Z" fill="#5da6b0" stroke="#5da6b0"></path><path d="M581.185318431817,433.23653298895806L467.7551581664011,712.0347093138844L683.7243430037051,569.7407135739923Z" fill="#4ea0ad" stroke="#4ea0ad"></path><path d="M683.7243430037051,569.7407135739923L467.7551581664011,712.0347093138844L623.5650275810622,709.6376897953451Z" fill="#4c9396" stroke="#4c9396"></path><path d="M683.7243430037051,569.7407135739923L623.5650275810622,709.6376897953451L873.5919238720089,776.4275120338425Z" fill="#3b8a88" stroke="#3b8a88"></path><path d="M683.7243430037051,569.7407135739923L873.5919238720089,776.4275120338425L1019.3149074283428,533.5774006415159Z" fill="#2c8d8b" stroke="#2c8d8b"></path><path d="M683.7243430037051,569.7407135739923L1019.3149074283428,533.5774006415159L949.6365162823349,423.1950825196691Z" fill="#299ca6" stroke="#299ca6"></path><path d="M1019.3149074283428,533.5774006415159L873.5919238720089,776.4275120338425L1114.1541245952249,619.7093046922237Z" fill="#1e847b" stroke="#1e847b"></path><path d="M1019.3149074283428,533.5774006415159L1114.1541245952249,619.7093046922237L1317.5132518541068,420.8322844398208Z" fill="#188d88" stroke="#188d88"></path><path d="M1317.5132518541068,420.8322844398208L1114.1541245952249,619.7093046922237L1253.7473217234947,750.9355959179811Z" fill="#147e6f" stroke="#147e6f"></path><path d="M1317.5132518541068,420.8322844398208L1253.7473217234947,750.9355959179811L1460.8810437307693,747.674750147853Z" fill="#127259" stroke="#127259"></path><path d="M1317.5132518541068,420.8322844398208L1460.8810437307693,747.674750147853L1578.9092202996835,423.89556349255145Z" fill="#127b69" stroke="#127b69"></path><path d="M1578.9092202996835,423.89556349255145L1460.8810437307693,747.674750147853L1675.4905477259308,569.3632013374008Z" fill="#126d51" stroke="#126d51"></path><path d="M1675.4905477259308,569.3632013374008L1460.8810437307693,747.674750147853L1644.074853383936,838.8363377889618Z" fill="#12592d" stroke="#12592d"></path><path d="M1675.4905477259308,569.3632013374008L1644.074853383936,838.8363377889618L1751.0016609937884,729.4724482949823Z" fill="#125525" stroke="#125525"></path><path d="M-173.0659481161274,758.294606807176L-110.05632433574647,931.9048256287351L57.36220732098445,687.8506775153801Z" fill="#91a78c" stroke="#91a78c"></path><path d="M57.36220732098445,687.8506775153801L-110.05632433574647,931.9048256287351L164.17032774537802,855.1533609093167Z" fill="#899c80" stroke="#899c80"></path><path d="M57.36220732098445,687.8506775153801L164.17032774537802,855.1533609093167L309.9548847018741,694.3221031362191Z" fill="#7d9e8f" stroke="#7d9e8f"></path><path d="M309.9548847018741,694.3221031362191L164.17032774537802,855.1533609093167L420.43689851649106,876.2497397046536Z" fill="#728e7b" stroke="#728e7b"></path><path d="M309.9548847018741,694.3221031362191L420.43689851649106,876.2497397046536L467.7551581664011,712.0347093138844Z" fill="#668f84" stroke="#668f84"></path><path d="M467.7551581664011,712.0347093138844L420.43689851649106,876.2497397046536L623.5650275810622,709.6376897953451Z" fill="#588a80" stroke="#588a80"></path><path d="M623.5650275810622,709.6376897953451L420.43689851649106,876.2497397046536L716.6131293959916,847.0300749433227Z" fill="#4c7f73" stroke="#4c7f73"></path><path d="M623.5650275810622,709.6376897953451L716.6131293959916,847.0300749433227L873.5919238720089,776.4275120338425Z" fill="#3a7d71" stroke="#3a7d71"></path><path d="M873.5919238720089,776.4275120338425L716.6131293959916,847.0300749433227L951.8103981972672,900.2280052611604Z" fill="#2d7058" stroke="#2d7058"></path><path d="M873.5919238720089,776.4275120338425L951.8103981972672,900.2280052611604L1114.1541245952249,619.7093046922237Z" fill="#1f755f" stroke="#1f755f"></path><path d="M1114.1541245952249,619.7093046922237L951.8103981972672,900.2280052611604L1181.9519766932353,856.2980344053358Z" fill="#1b6c4e" stroke="#1b6c4e"></path><path d="M1114.1541245952249,619.7093046922237L1181.9519766932353,856.2980344053358L1253.7473217234947,750.9355959179811Z" fill="#166d50" stroke="#166d50"></path><path d="M1253.7473217234947,750.9355959179811L1181.9519766932353,856.2980344053358L1240.4263095883653,954.4541214965284Z" fill="#155b32" stroke="#155b32"></path><path d="M1253.7473217234947,750.9355959179811L1240.4263095883653,954.4541214965284L1460.8810437307693,747.674750147853Z" fill="#125b31" stroke="#125b31"></path><path d="M1460.8810437307693,747.674750147853L1240.4263095883653,954.4541214965284L1519.0409438079223,865.2849791944027Z" fill="#125120" stroke="#125120"></path><path d="M1460.8810437307693,747.674750147853L1519.0409438079223,865.2849791944027L1644.074853383936,838.8363377889618Z" fill="#124f1b" stroke="#124f1b"></path><path d="M-110.05632433574647,931.9048256287351L242.04381874762475,951.7704893345945L164.17032774537802,855.1533609093167Z" fill="#848c78" stroke="#848c78"></path><path d="M164.17032774537802,855.1533609093167L242.04381874762475,951.7704893345945L420.43689851649106,876.2497397046536Z" fill="#748472" stroke="#748472"></path><path d="M242.04381874762475,951.7704893345945L1240.4263095883653,954.4541214965284L951.8103981972672,900.2280052611604Z" fill="#316559" stroke="#316559"></path><path d="M242.04381874762475,951.7704893345945L951.8103981972672,900.2280052611604L716.6131293959916,847.0300749433227Z" fill="#467168" stroke="#467168"></path><path d="M242.04381874762475,951.7704893345945L716.6131293959916,847.0300749433227L420.43689851649106,876.2497397046536Z" fill="#5d7b6d" stroke="#5d7b6d"></path><path d="M951.8103981972672,900.2280052611604L1240.4263095883653,954.4541214965284L1181.9519766932353,856.2980344053358Z" fill="#195a3c" stroke="#195a3c"></path><path d="M1240.4263095883653,954.4541214965284L1644.074853383936,838.8363377889618L1519.0409438079223,865.2849791944027Z" fill="#12491a" stroke="#12491a"></path></g></svg>